PathFileType	4	(X/Y/Z)	C:\Users\Basilio\Documents\Thesis Gigler\squatting_fais\c3dfiles\038\SJ_pre4\markers_experimental.trc
DataRate	CameraRate	NumFrames	NumMarkers	Units	OrigDataRate	OrigDataStartFrame	OrigNumFrames
200.000000	200.000000	4	61	mm	200.000000	501	2007
Frame#	Time	FHD			LBHD			RBHD			C7			T10			CLAV			LSHO			LUUPA			LMUPA			LDUPA			LLEP			LMEP			LRAD			LUL			LRFIN			RSHO			RUPA1			RMUPA			RDUPA			RLEP			RMEP			RRAD			RUL			RUFIN			LASI			RASI			USACR			LSACR			RSACR			LTHI1			LTHI2			LTHI3			LTHI4			LLFC			LMFC			LTIB1			LTIB2			LTIB3			LTIB4			LLMAL			LMMAL			LHEE			LMT1			LMT2			LMT5			RTHI			RTHI2			RTHI3			RTHI4			RLFC			RMFC			RTIB1			RTIB2			RTIB3			RTIB4			RLMAL			RMMAL			RHEE			RMT1			RMT2			RMT5			
		X1	Y1	Z1	X2	Y2	Z2	X3	Y3	Z3	X4	Y4	Z4	X5	Y5	Z5	X6	Y6	Z6	X7	Y7	Z7	X8	Y8	Z8	X9	Y9	Z9	X10	Y10	Z10	X11	Y11	Z11	X12	Y12	Z12	X13	Y13	Z13	X14	Y14	Z14	X15	Y15	Z15	X16	Y16	Z16	X17	Y17	Z17	X18	Y18	Z18	X19	Y19	Z19	X20	Y20	Z20	X21	Y21	Z21	X22	Y22	Z22	X23	Y23	Z23	X24	Y24	Z24	X25	Y25	Z25	X26	Y26	Z26	X27	Y27	Z27	X28	Y28	Z28	X29	Y29	Z29	X30	Y30	Z30	X31	Y31	Z31	X32	Y32	Z32	X33	Y33	Z33	X34	Y34	Z34	X35	Y35	Z35	X36	Y36	Z36	X37	Y37	Z37	X38	Y38	Z38	X39	Y39	Z39	X40	Y40	Z40	X41	Y41	Z41	X42	Y42	Z42	X43	Y43	Z43	X44	Y44	Z44	X45	Y45	Z45	X46	Y46	Z46	X47	Y47	Z47	X48	Y48	Z48	X49	Y49	Z49	X50	Y50	Z50	X51	Y51	Z51	X52	Y52	Z52	X53	Y53	Z53	X54	Y54	Z54	X55	Y55	Z55	X56	Y56	Z56	X57	Y57	Z57	X58	Y58	Z58	X59	Y59	Z59	X60	Y60	Z60	X61	Y61	Z61	

502	2.505	-248.3941040039063	1742.932250976563	-900.3020629882815	-398.176971435547	1675.744995117188	-963.244079589844	-390.8787841796876	1665.965942382813	-817.7790527343752	-449.4394836425782	1520.89306640625	-887.7388305664065	-478.2564086914064	1234.32373046875	-887.6462402343752	-308.2047119140626	1479.058837890625	-902.641540527344	-367.9450988769532	1525.363037109375	-1066.426391601563	-411.3778076171876	1350.470703125	-1233.828979492188	-367.6554870605469	1326.356079101563	-1224.257568359375	-393.3641967773439	1291.251220703125	-1266.540283203125	-374.8185424804688	1230.342529296875	-1281.67919921875	-448.8856811523439	1199.780029296875	-1258.762084960938	-339.2481384277344	1016.004272460938	-1084.326416015625	-298.1464538574219	981.1807861328127	-1135.523803710938	-321.7731628417969	973.6149902343752	-1026.749877929688	-339.5469665527344	1508.029052734375	-731.3404541015626	-331.8080444335938	1344.459106445313	-573.0405883789064	-311.1045227050782	1303.665649414063	-590.9195556640626	-327.9434814453126	1285.702392578125	-536.3904418945314	-316.3399353027344	1211.44873046875	-514.7878417968751	-398.4798583984376	1193.233764648438	-512.7791137695314	-336.5830078125001	986.9122314453127	-676.4499511718751	-278.2878417968751	961.7988281250002	-643.0018920898439	-308.5024108886719	965.3507080078127	-741.2047119140626	-338.6820678710938	1027.784912109375	-1014.615417480469	-326.7521972656251	1035.34130859375	-767.4630126953126	-496.6023559570314	1099.775390625	-884.7552490234377	-513.9489135742189	1070.6318359375	-911.3808593750002	-507.7934570312501	1070.057373046875	-853.8669433593752	-396.9175109863282	724.3125000000001	-1104.646850585938	-363.9288940429688	645.4623413085939	-1109.31787109375	-316.9375915527344	650.9550781250001	-1093.299682617188	-389.0897216796876	594.0876464843751	-1092.316162109375	-383.9186096191407	534.9511718750001	-1091.41552734375	-346.9010925292969	511.4292602539064	-981.1795043945315	-348.1914978027344	339.5387878417969	-1054.161865234375	-411.5792846679689	308.6242980957032	-1111.385986328125	-370.4923095703126	299.0569152832032	-1091.584838867188	-380.7853393554688	216.1500396728516	-1070.571411132813	-478.1290893554689	86.92754364013673	-1083.966674804688	-421.5652770996095	96.16231536865237	-1025.524780273438	-509.0961303710939	44.78415679931641	-1024.138305664063	-306.4663391113282	48.0647315979004	-1089.850952148438	-319.3694152832032	50.02325820922853	-1138.923583984375	-372.5394897460938	29.64744949340821	-1171.482543945313	-397.1385803222657	776.9746093750002	-689.9288330078126	-361.6073303222657	720.7559814453126	-680.2032470703126	-328.0141601562501	722.2720947265626	-683.2546386718751	-389.2981567382814	640.3357543945314	-696.7954101562501	-372.9615173339844	507.7986450195314	-700.4129028320314	-354.7599487304688	501.8120727539064	-817.3389892578127	-341.1192016601563	327.9907226562501	-711.9555053710939	-430.3460693359376	257.6111755371094	-688.0422973632814	-382.7606201171876	255.7758026123047	-689.8669433593751	-372.0402526855469	202.8037109375001	-714.8110961914064	-456.0997619628907	92.52820587158205	-697.6969604492189	-407.524627685547	91.21958160400392	-766.6188964843751	-495.7195434570314	41.24708557128907	-771.9825439453127	-291.7253112792969	49.02304840087892	-690.5740966796876	-309.2180786132813	53.33641052246095	-647.7054443359376	-364.6512451171876	34.51605606079102	-617.8671264648439	
503	2.51	-248.2974700927735	1743.0048828125	-900.312683105469	-397.858367919922	1675.546875	-963.275817871094	-390.4933166503907	1665.6806640625	-817.8237304687502	-448.916961669922	1520.994506835938	-887.7990722656252	-478.1961975097657	1234.445190429688	-887.7320556640627	-307.9041137695313	1478.240600585938	-902.816101074219	-367.1276855468751	1525.12353515625	-1066.561401367188	-411.2152709960939	1350.472778320313	-1233.828979492188	-367.5618896484376	1326.16845703125	-1224.239379882813	-393.3384704589845	1291.19384765625	-1266.583618164063	-374.9995422363282	1230.17578125	-1281.68359375	-449.0880737304689	1199.831176757813	-1258.726806640625	-339.8638610839844	1015.909057617188	-1084.239624023438	-298.5591735839844	980.857849121094	-1135.210815429688	-322.8829956054688	973.5753173828127	-1026.327026367188	-338.9039611816407	1507.908569335938	-731.5191040039064	-331.5221557617188	1344.3369140625	-573.0895385742189	-310.8634643554688	1303.45849609375	-590.9719848632814	-327.7802734375001	1285.621459960938	-536.3560180664064	-316.2987365722657	1211.375366210938	-514.8039550781251	-398.4145507812501	1193.243286132813	-512.7980346679689	-336.9722290039063	986.8547363281252	-676.3972167968751	-278.6153869628907	961.6483154296877	-643.0303955078126	-308.8876647949219	965.242370605469	-741.2573242187501	-339.2125549316407	1027.638061523438	-1014.714477539063	-327.3533325195313	1035.155151367188	-767.4216918945314	-497.141326904297	1100.016479492188	-884.6867675781252	-514.5044555664064	1070.842651367188	-911.351745605469	-508.3380432128907	1070.342895507813	-853.8191528320315	-397.3743286132814	724.2850952148439	-1104.678588867188	-364.3660583496094	645.4276123046876	-1109.330200195313	-317.3358764648438	650.9255981445314	-1093.257690429688	-389.3651123046876	593.9968261718751	-1092.31884765625	-383.9912414550782	535.1995849609376	-1091.360717773438	-347.0445861816407	511.5091247558595	-981.2373657226565	-348.3168640136719	339.6104431152344	-1054.161987304688	-411.8038024902345	308.6981506347657	-1111.375854492188	-370.6273193359376	298.9993286132813	-1091.582397460938	-380.8939514160157	216.2231140136719	-1070.600708007813	-478.0610656738282	86.96969604492189	-1083.939086914063	-421.5797424316407	96.15338897705081	-1025.4599609375	-509.0914306640626	44.77208709716798	-1024.146850585938	-306.4075012207032	48.08201217651369	-1089.875	-319.3601684570313	50.05006408691408	-1138.916015625	-372.4363403320313	29.58704566955567	-1171.447998046875	-397.4808044433595	776.915710449219	-689.8203125000001	-361.9474182128907	720.7468261718751	-680.1868286132814	-328.4418640136719	722.3088378906251	-683.1226806640626	-389.5570678710939	640.2739257812501	-696.6109619140626	-373.1782836914063	507.9241638183595	-700.3282470703126	-355.0755920410157	501.9002990722657	-817.2873535156252	-341.2723388671876	327.9852905273438	-711.9185791015626	-430.4470520019532	257.6232910156251	-687.9812622070314	-382.8515319824219	255.7844696044922	-689.8514404296876	-372.0611572265626	202.8112030029297	-714.8192749023439	-456.1119995117189	92.53663635253908	-697.6583862304689	-407.5358276367189	91.23902130126955	-766.6232299804689	-495.1406860351564	40.83099746704102	-771.9101562500002	-291.6996154785157	49.03426742553712	-690.5902709960939	-309.1919555664063	53.29681777954103	-647.7111816406251	-364.6302185058594	34.52587127685548	-617.8151245117189	
504	2.515	-248.0868072509766	1743.043579101563	-900.2732543945315	-397.5723876953126	1675.344482421875	-963.3379516601565	-390.1951904296876	1665.392822265625	-817.8038330078127	-448.2518920898439	1521.003051757813	-887.8551025390627	-478.1441650390626	1234.578369140625	-887.772155761719	-307.1935729980469	1477.97216796875	-902.9446411132815	-366.6440429687501	1524.940063476563	-1066.642456054688	-411.0032043457032	1350.42041015625	-1233.934936523438	-367.4330749511719	1326.132934570313	-1224.298095703125	-393.3069763183595	1291.107543945313	-1266.57373046875	-375.1316223144532	1230.087158203125	-1281.7314453125	-449.378631591797	1199.908081054688	-1258.665405273438	-340.3894348144532	1015.868530273438	-1084.176025390625	-299.3330688476563	980.6624755859377	-1135.106811523438	-323.6439514160157	973.5643310546877	-1026.312133789063	-338.2443847656251	1507.847412109375	-731.4787597656251	-331.1679687500001	1344.270629882813	-573.2189331054689	-310.5925598144532	1303.30615234375	-591.0265502929689	-327.5411071777344	1285.462646484375	-536.3549194335939	-316.1835632324219	1211.253662109375	-514.8070068359376	-398.3958129882814	1193.291748046875	-512.7901000976564	-337.8850097656251	986.2371826171877	-676.4375000000001	-279.0189208984376	961.4648437500002	-643.1741333007814	-309.3239135742188	965.0670166015627	-741.3151855468751	-339.7960815429688	1027.413452148438	-1014.605773925781	-328.0438537597657	1035.120361328125	-767.2648315429689	-497.6004333496095	1100.239379882813	-884.625427246094	-515.8130493164064	1071.773681640625	-911.400085449219	-509.5911865234376	1071.292724609375	-854.134948730469	-397.8734741210939	724.2669677734376	-1104.675170898438	-364.7999877929688	645.4044799804689	-1109.317626953125	-317.7649536132813	650.9548339843751	-1093.27392578125	-389.6953125000001	593.9220581054689	-1092.394165039063	-384.4816284179689	535.0156250000001	-1091.445434570313	-347.3464965820313	511.5745544433595	-981.285095214844	-348.3835144042969	339.6259460449219	-1054.2294921875	-411.9105529785157	308.7313537597657	-1111.393432617188	-370.7322692871094	298.8557434082032	-1091.560791015625	-381.0069580078126	216.2720184326172	-1070.60107421875	-478.1436462402345	86.97054290771486	-1083.947631835938	-421.6121826171876	96.13587951660159	-1025.499145507813	-509.0776367187501	44.74725341796876	-1024.171630859375	-306.4882202148438	48.15306854248048	-1089.740966796875	-319.3766174316407	50.06898117065431	-1138.895874023438	-372.5282287597657	29.67824935913087	-1171.468627929688	-397.8682556152345	776.8616943359377	-689.6164550781251	-362.2358093261719	720.7731323242189	-680.0716552734376	-328.8445129394532	722.3939208984376	-682.9279174804689	-389.8364257812501	640.2954101562501	-696.5642700195314	-373.3913879394532	507.9743652343751	-700.1881103515626	-355.4342651367188	501.9532165527345	-817.2257080078127	-341.3432922363282	328.0564270019532	-711.9125366210939	-430.507781982422	257.5863342285157	-687.9603271484376	-383.0139160156251	255.8634796142579	-689.8607788085939	-372.2145385742188	202.8990936279297	-714.8296508789064	-456.1238098144532	92.52743530273439	-697.6715698242189	-407.9905700683595	91.54232788085939	-766.6635131835939	-495.5583801269532	40.97560501098634	-772.0328369140627	-291.6934204101563	49.07549285888673	-690.5997314453126	-309.1736755371094	53.30416870117189	-647.7331542968751	-364.6571044921876	34.5368995666504	-617.8984985351564	
505	2.52	-247.7067871093751	1742.5419921875	-900.2146606445315	-397.1372375488282	1675.1259765625	-963.4422607421877	-390.027313232422	1665.280151367188	-817.8620605468752	-447.6600036621095	1521.01904296875	-887.9105224609377	-478.0897216796876	1234.691162109375	-887.8225708007815	-306.6971435546876	1478.166748046875	-902.9982910156252	-366.2266540527344	1524.925415039063	-1066.680908203125	-410.8162536621095	1350.409790039063	-1233.987915039063	-367.4097900390626	1325.940673828125	-1224.29638671875	-393.3279418945314	1291.033569335938	-1266.59521484375	-375.2438049316407	1229.91748046875	-1281.785766601563	-449.6218566894532	1199.952880859375	-1258.653076171875	-341.0520629882813	1015.767150878906	-1084.108032226563	-299.8231506347657	980.3682861328127	-1135.145751953125	-324.2484130859376	973.5159301757815	-1026.319702148438	-337.6549072265626	1507.725219726563	-731.4812011718751	-330.8134460449219	1344.182495117188	-573.3358154296876	-310.2884826660157	1303.2373046875	-591.0855102539064	-327.3259277343751	1285.38330078125	-536.3804931640626	-316.1604309082032	1211.143432617188	-514.8298950195314	-398.3490600585939	1193.307495117188	-512.7487792968751	-338.3191833496094	986.1494140625002	-676.3502197265626	-279.3748779296876	961.056091308594	-643.2061157226564	-309.5661315917969	964.927917480469	-741.3804321289064	-340.5378417968751	1027.137573242188	-1014.421203613281	-328.6139526367188	1034.878784179688	-767.1931762695314	-497.9050598144532	1100.41796875	-884.5885009765627	-516.3620605468751	1072.020263671875	-911.3364868164065	-510.030242919922	1071.571533203125	-854.0002441406252	-398.3127441406251	724.2428588867189	-1104.682983398438	-365.2282714843751	645.3504638671876	-1109.3271484375	-318.2070922851563	651.0396728515626	-1093.168701171875	-390.0987854003907	593.9235839843751	-1092.344604492188	-384.763885498047	534.9989013671876	-1091.43798828125	-347.7195739746094	511.7662048339845	-981.3504028320315	-348.5162353515626	339.6831665039063	-1054.20751953125	-411.948455810547	308.6876220703126	-1111.389770507813	-370.9313354492188	298.9329528808594	-1091.537841796875	-381.0905456542969	216.3180236816407	-1070.600219726563	-478.1871948242189	86.89428710937501	-1083.92236328125	-421.6181030273439	96.17230987548831	-1025.467163085938	-509.1184082031251	44.76217651367188	-1024.166625976563	-306.3192138671876	48.2707862854004	-1089.84423828125	-319.3781738281251	50.07247543334962	-1138.912475585938	-372.3928222656251	29.60031890869141	-1171.474487304688	-398.4134826660157	776.7839355468752	-689.4019775390626	-362.4642333984376	720.6597900390626	-679.9452514648439	-329.2088623046876	722.4041748046876	-682.8755493164064	-390.1450500488282	640.3600463867189	-696.4262695312501	-373.6361999511719	508.0049133300782	-700.1296997070314	-355.8284912109376	502.0511169433595	-817.208679199219	-341.4915466308594	328.0815734863282	-711.9277343750001	-430.6189880371095	257.6078491210938	-687.9247436523439	-383.0967102050782	255.9245758056641	-689.8410644531251	-372.3083801269532	202.9956054687501	-714.7922973632814	-456.138397216797	92.53817749023439	-697.6587524414064	-407.5512084960939	91.24220275878908	-766.5363769531251	-495.544891357422	41.03058242797852	-772.0006103515627	-291.7346496582032	49.07079696655275	-690.5970458984376	-309.2011413574219	53.3293914794922	-647.7104492187501	-364.6391601562501	34.53830718994141	-617.8621215820314	
